<svg version="1.1" viewBox="0.0 0.0 510.70603674540683 100.0" fill="none" stroke="none" stroke-linecap="square" stroke-miterlimit="10" xmlns:xlink="http://www.w3.org/1999/xlink" xmlns="http://www.w3.org/2000/svg"><clipPath id="p.0"><path d="m0 0l510.70602 0l0 100.0l-510.70602 0l0 -100.0z" clip-rule="nonzero"/></clipPath><g clip-path="url(#p.0)"><path fill="#000000" fill-opacity="0.0" d="m0 0l510.70602 0l0 100.0l-510.70602 0z" fill-rule="evenodd"/><path fill="#000000" fill-opacity="0.0" d="m-0.001312336 4.2204723l510.70865 0l0 91.55905l-510.70865 0z" fill-rule="evenodd"/><path fill="#ec5f4e" d="m72.85774 19.284994l0 65.375l-13.4375 0l-32.9375 -62.109375l0 60.28125l5.28125 0l0 1.828125l-13.140625 0l0 -1.828125l5.28125 0l0 -63.546875l-5.28125 0l0 -1.828125l26.484375 0l25.15625 48.1875l0 -46.359375l-5.28125 0l0 -1.828125l13.15625 0l0 1.828125l-5.28125 0zm8.156845 42.71875q0 -11.8125 6.484375 -17.90625q6.484375 -6.09375 18.859375 -6.09375q3.078125 0 6.25 0.484375l2.484375 -6.625002l2.109375 0.7656269l-2.390625 6.234375q15.734375 3.65625 15.734375 22.28125q0 24.46875 -24.765625 24.46875q-4.609375 0 -8.34375 -0.859375l-2.6875 7.109375l-2.109375 -0.765625l2.578125 -6.921875q-14.203125 -4.609375 -14.203125 -22.171875zm31.109375 3.75l0 -8.171875q0 -6.71875 -0.484375 -10.265625l-11.421875 30.140625q1.15625 6.4375 5.765625 6.4375q3.828125 0 4.984375 -3.984375q1.15625 -3.984375 1.15625 -14.15625zm-12.578125 -0.203125q0 4.90625 0.09375 6.921875l11.046875 -29.0q-1.546875 -3.734375 -4.609375 -3.734375q-4.03125 0 -5.28125 4.46875q-1.25 4.453125 -1.25 13.859375l0 7.484375zm65.47847 -23.90625q-3.5625 0 -6.25 4.609375q-2.6875 4.609375 -2.6875 10.953125l0 25.71875l6.8125 0l0 1.734375l-29.953125 0l0 -1.734375l5.28125 0l0 -42.234375l-5.28125 0l0 -1.734375l23.140625 0l0 9.21875q1.25 -4.890625 4.796875 -7.53125q3.5625 -2.640625 8.0625 -2.640625q4.515625 0 7.34375 2.546875q2.84375 2.546875 2.84375 7.203125q0 4.65625 -2.125 7.15625q-2.109375 2.484375 -6.484375 2.484375q-4.359375 0 -6.421875 -2.875q-2.0625 -2.890625 -0.53125 -7.96875l3.46875 0q2.390625 -4.90625 -2.015625 -4.90625zm47.519974 0q-3.5625 0 -6.25 4.609375q-2.6875 4.609375 -2.6875 10.953125l0 25.71875l6.8125 0l0 1.734375l-29.953125 0l0 -1.734375l5.28125 0l0 -42.234375l-5.28125 0l0 -1.734375l23.140625 0l0 9.21875q1.25 -4.890625 4.796875 -7.53125q3.5625 -2.640625 8.0625 -2.640625q4.515625 0 7.34375 2.546875q2.84375 2.546875 2.84375 7.203125q0 4.65625 -2.125 7.15625q-2.109375 2.484375 -6.484375 2.484375q-4.359375 0 -6.421875 -2.875q-2.0625 -2.890625 -0.53125 -7.96875l3.46875 0q2.390625 -4.90625 -2.015625 -4.90625zm40.211853 43.96875q-12.375 0 -18.578125 -6.375q-6.1875 -6.390625 -6.1875 -17.765625q0 -11.375 6.953125 -17.421875q6.96875 -6.046875 17.71875 -6.046875q21.796875 0 20.9375 21.890625l-27.078125 0l0 3.734375q0 9.421875 2.390625 14.21875q2.40625 4.796875 8.359375 4.796875q11.140625 0 14.59375 -11.90625l1.734375 0.296875q-1.828125 6.90625 -6.578125 10.75q-4.75 3.828125 -14.265625 3.828125zm-6.140625 -27.640625l9.890625 0l0 -4.703125q0 -7.78125 -0.921875 -10.609375q-0.90625 -2.828125 -3.640625 -2.828125q-2.734375 0 -4.03125 3.03125q-1.296875 3.015625 -1.296875 10.40625l0 4.703125zm57.31726 -18.234375q-4.234375 0 -6.0625 4.609375q-1.8125 4.59375 -1.8125 15.25l0 5.0q0 9.5 2.109375 13.640625q2.109375 4.125 7.765625 4.125q5.671875 0 9.03125 -3.84375q3.359375 -3.84375 4.328125 -8.734375l1.71875 0.1875q-1.8125 8.25 -6.71875 11.90625q-4.984375 3.734375 -13.71875 3.734375q-11.140625 0 -17.09375 -6.0q-5.953125 -6.0 -5.953125 -17.5625q0 -11.5625 6.765625 -17.796875q6.765625 -6.25 18.875 -6.25q8.53125 0 13.046875 3.3125q4.515625 3.3125 4.515625 8.3125q0 4.984375 -2.171875 7.296875q-2.15625 2.296875 -5.953125 2.296875q-3.78125 0 -6.09375 -2.015625q-2.296875 -2.015625 -2.296875 -5.953125q0 -1.734375 0.484375 -3.453125l3.171875 0q0.671875 -1.921875 0.671875 -3.453125q0 -4.609375 -4.609375 -4.609375zm51.55548 1.90625q-3.5625 0 -6.25 4.609375q-2.6875 4.609375 -2.6875 10.953125l0 25.71875l6.8125 0l0 1.734375l-29.953125 0l0 -1.734375l5.28125 0l0 -42.234375l-5.28125 0l0 -1.734375l23.140625 0l0 9.21875q1.25 -4.890625 4.796875 -7.53125q3.5625 -2.640625 8.0625 -2.640625q4.515625 0 7.34375 2.546875q2.84375 2.546875 2.84375 7.203125q0 4.65625 -2.125 7.15625q-2.109375 2.484375 -6.484375 2.484375q-4.359375 0 -6.421875 -2.875q-2.0625 -2.890625 -0.53125 -7.96875l3.46875 0q2.390625 -4.90625 -2.015625 -4.90625zm37.048706 20.453125l2.78125 0l0 -7.390625q0 -9.125 -1.015625 -12.234375q-1.0 -3.125 -3.875 -3.125q-1.734375 0 -3.125 0.921875q-1.390625 0.90625 -1.390625 2.5q0 1.578125 0.578125 3.203125l2.40625 0q0.765625 2.015625 0.765625 4.84375q0 2.828125 -2.40625 4.90625q-2.40625 2.0625 -6.046875 2.0625q-8.25 0 -8.25 -7.96875q0 -11.8125 20.0625 -11.8125q11.421875 0 15.78125 3.890625q4.375 3.890625 4.375 14.25l0 19.484375q0 5.0 2.78125 5.0q3.265625 0 3.84375 -9.890625l1.4375 0.09375q-0.390625 8.453125 -3.171875 11.625q-2.78125 3.15625 -9.109375 3.15625q-11.53125 0 -13.25 -7.09375q-1.25 3.640625 -3.75 5.375q-2.5 1.71875 -7.296875 1.71875q-14.203125 0 -14.203125 -11.609375q0 -6.8125 5.421875 -9.359375q5.421875 -2.546875 16.65625 -2.546875zm-3.84375 11.8125q0 4.984375 0.53125 6.4375q0.53125 1.4375 2.015625 1.4375q1.484375 0 2.78125 -2.453125q1.296875 -2.453125 1.296875 -6.765625l0 -8.9375l-0.671875 0q-5.953125 0 -5.953125 8.75l0 1.53125zm57.125854 -54.71875q1.34375 -2.890625 0.421875 -4.84375q-0.90625 -1.96875 -3.734375 -1.96875q-2.828125 0 -4.515625 1.53125q-1.671875 1.53125 -1.671875 4.265625q0 2.734375 1.34375 5.421875l7.671875 15.359377l11.71875 0l0 1.734375l-11.71875 0l0 42.234375l10.375 0l0 1.734375l-33.515625 0l0 -1.734375l5.28125 0l0 -42.234375l-5.5625 0l0 -1.734375l5.5625 0l0 -4.5q0 -10.562502 4.3125 -17.281252q4.328125 -6.71875 12.78125 -6.71875q6.4375 0 9.75 3.171875q3.3125 3.15625 3.3125 7.34375q0 4.171875 -2.21875 6.234375q-2.203125 2.0625 -5.8125 2.0625q-3.59375 0 -5.5625 -2.109375q-1.96875 -2.109375 -1.96875 -5.375q0 -1.34375 0.09375 -2.015625l3.65625 -0.578125zm16.61145 51.734375l0 -30.234375l-5.28125 0l0 -1.734375l5.28125 0l0 -12.375002l17.84375 -4.421875l0 16.796877l12.484375 0l0 1.734375l-12.484375 0l0 32.359375q0 4.5 0.90625 6.625q0.921875 2.109375 3.796875 2.109375q2.890625 0 5.046875 -2.875q2.15625 -2.890625 2.828125 -7.875l1.640625 0.1875q-0.765625 6.625 -4.234375 10.515625q-3.453125 3.875 -11.421875 3.875q-7.96875 0 -12.1875 -3.15625q-4.21875 -3.171875 -4.21875 -11.53125z" fill-rule="nonzero"/></g></svg>